<svg xmlns="http://www.w3.org/2000/svg" font-family="system-ui, -apple-system, 'Segoe UI', Roboto, Helvetica, Arial, sans-serif" viewBox="0 0 1380 310"><defs><marker id="ar" markerHeight="7" markerWidth="7" orient="auto-start-reverse" refX="8" refY="5" viewBox="0 0 10 10"><path fill="#5a5a5a" d="M0,0 L10,5 L0,10 z"/></marker><marker id="aro" markerHeight="7" markerWidth="7" orient="auto-start-reverse" refX="8" refY="5" viewBox="0 0 10 10"><path fill="#dca06f" d="M0,0 L10,5 L0,10 z"/></marker><style>.box{font-size:14px;font-weight:500}.alab,.mono,.op{font-family:ui-monospace,&apos;SF Mono&apos;,Menlo,Consolas,monospace}.op{font-size:13px}.alab{font-size:12px;fill:#555}.asub{font-size:10px;fill:#8a8a8a}.sub{font-size:10.5px}@media (prefers-color-scheme:dark){rect[fill=&quot;#ececec&quot;]{fill:#2a2b30}text[fill=&quot;#4a4a4a&quot;]{fill:#d6d6da}text[fill=&quot;#777777&quot;]{fill:#9b9ba1}rect[fill=&quot;#cbe0cc&quot;]{fill:#243528}text[fill=&quot;#334335&quot;]{fill:#bcd9c1}rect[fill=&quot;#fbeadf&quot;]{fill:#352a20}text[fill=&quot;#6e5747&quot;]{fill:#e3c2a2}text[fill=&quot;#8a7565&quot;]{fill:#c5a587}[stroke=&quot;#5a5a5a&quot;]{stroke:#8c8c92}[fill=&quot;#5a5a5a&quot;]{fill:#8c8c92}rect[stroke=&quot;#cccccc&quot;]{stroke:#45474c}text[fill=&quot;#9a9a9a&quot;],text[fill=&quot;#aeaeae&quot;]{fill:#8b8b91}text[fill=&quot;#b3b3b3&quot;]{fill:#6e6e74}.alab{fill:#b2b2b8}.asub{fill:#8a8a90}}</style></defs><rect width="982" height="120" x="186" y="56" fill="none" stroke="#ccc" stroke-dasharray="5 4" stroke-width="1.4" rx="12"/><text x="677" y="74" fill="#9a9a9a" class="mono" font-size="12" text-anchor="middle">clean-jsdoc-theme/publish.ts</text><text x="677" y="89" fill="#aeaeae" font-size="11" text-anchor="middle">the bridge — JSDoc calls it via require()</text><g fill="none" stroke="#5a5a5a" stroke-width="2.4" marker-end="url(#ar)"><line x1="136" x2="198" y1="120" y2="120"/><line x1="374" x2="476" y1="120" y2="120"/><line x1="608" x2="710" y1="120" y2="120"/><line x1="878" x2="960" y1="120" y2="120"/><line x1="1156" x2="1232" y1="120" y2="120"/></g><text x="167" y="110" class="alab" text-anchor="middle">collection</text><text x="425" y="110" class="alab" text-anchor="middle">SiteManifest</text><text x="425" y="139" class="asub" text-anchor="middle">MDX · nav · buildId</text><text x="659" y="110" class="alab" text-anchor="middle">RenderResult</text><text x="659" y="139" class="asub" text-anchor="middle">files · search · stats</text><text x="919" y="110" class="alab" text-anchor="middle">destination/</text><text x="1194" y="110" class="alab" text-anchor="middle">search index</text><polyline fill="none" stroke="#dca06f" stroke-dasharray="5 4" stroke-width="1.8" marker-end="url(#aro)" points="542 206 542 150"/><text x="552" y="180" fill="#8a7565" font-size="11">components</text><rect width="110" height="52" x="22" y="94" fill="#ececec" rx="9"/><text x="77" y="116" fill="#4a4a4a" class="box" text-anchor="middle">JSDoc</text><text x="77" y="132" fill="#777" class="sub" text-anchor="middle">doclet collection</text><rect width="168" height="52" x="202" y="94" fill="#cbe0cc" rx="9"/><text x="286" y="125" fill="#334335" class="op" text-anchor="middle">setu.generateSite()</text><rect width="124" height="52" x="480" y="94" fill="#cbe0cc" rx="9"/><text x="542" y="125" fill="#334335" class="op" text-anchor="middle">dwar.render()</text><rect width="160" height="52" x="714" y="94" fill="#cbe0cc" rx="9"/><text x="794" y="125" fill="#334335" class="op" text-anchor="middle">writeOutputFiles()</text><rect width="188" height="52" x="964" y="94" fill="#cbe0cc" rx="9"/><text x="1058" y="125" fill="#334335" class="op" text-anchor="middle">runPagefindAgainstDir()</text><rect width="120" height="52" x="1236" y="94" fill="#ececec" rx="9"/><text x="1296" y="116" fill="#4a4a4a" class="box" text-anchor="middle">static site</text><text x="1296" y="132" fill="#777" class="sub" text-anchor="middle">HTML + search</text><rect width="200" height="46" x="442" y="206" fill="#fbeadf" stroke="#dca06f" stroke-dasharray="5 4" stroke-width="1.4" rx="9"/><text x="542" y="226" fill="#6e5747" font-size="13" font-weight="500" text-anchor="middle">rang</text><text x="542" y="242" fill="#8a7565" class="mono" font-size="10.5" text-anchor="middle">@clean-jsdoc-theme/rang</text><text x="22" y="290" fill="#b3b3b3" class="mono" font-size="11">type contracts for every arrow live in @clean-jsdoc-theme/utils/src/site/*</text></svg>